<svg width="20" height="20" viewBox="0 0 20 20" fill="none" xmlns="http://www.w3.org/2000/svg">
<path fill-rule="evenodd" clip-rule="evenodd" d="M4.83631 0.916634L4.86675 0.916634H5.13342L5.16385 0.916634C5.69801 0.916623 6.14385 0.916615 6.50809 0.946374C6.88797 0.977411 7.24463 1.04452 7.58189 1.21637C8.09934 1.48002 8.52003 1.90071 8.78368 2.41816C8.95553 2.75542 9.02264 3.11208 9.05368 3.49196C9.08344 3.8562 9.08343 4.30205 9.08342 4.83621V4.86663V5.1333V5.16373C9.08343 5.69789 9.08344 6.14374 9.05368 6.50797C9.02264 6.88786 8.95553 7.24451 8.78368 7.58178C8.52003 8.09922 8.09934 8.51992 7.58189 8.78357C7.24463 8.95541 6.88797 9.02252 6.50809 9.05356C6.14385 9.08332 5.698 9.08331 5.16384 9.0833H5.13342H4.86675H4.83632C4.30216 9.08331 3.85631 9.08332 3.49208 9.05356C3.11219 9.02252 2.75554 8.95541 2.41827 8.78357C1.90083 8.51992 1.48013 8.09922 1.21648 7.58178C1.04464 7.24451 0.977526 6.88786 0.946488 6.50797C0.916729 6.14374 0.916738 5.69789 0.916748 5.16374L0.916749 5.1333V4.86663L0.916748 4.8362C0.916738 4.30204 0.916729 3.8562 0.946488 3.49196C0.977526 3.11208 1.04464 2.75542 1.21648 2.41816C1.48013 1.90071 1.90083 1.48002 2.41827 1.21637C2.75554 1.04452 3.11219 0.977411 3.49208 0.946374C3.85631 0.916615 4.30216 0.916623 4.83631 0.916634ZM14.8667 0.916634L14.8363 0.916634C14.3022 0.916623 13.8563 0.916615 13.4921 0.946374C13.1122 0.977411 12.7555 1.04452 12.4183 1.21637C11.9008 1.48002 11.4801 1.90071 11.2165 2.41816C11.0446 2.75542 10.9775 3.11208 10.9465 3.49196C10.9167 3.8562 10.9167 4.30204 10.9167 4.8362V4.86663V5.1333V5.16374C10.9167 5.69789 10.9167 6.14374 10.9465 6.50797C10.9775 6.88786 11.0446 7.24451 11.2165 7.58178C11.4801 8.09922 11.9008 8.51992 12.4183 8.78357C12.7555 8.95541 13.1122 9.02252 13.4921 9.05356C13.8563 9.08332 14.3022 9.08331 14.8363 9.0833H14.8667H15.1334H15.1638C15.698 9.08331 16.1438 9.08332 16.5081 9.05356C16.888 9.02252 17.2446 8.95541 17.5819 8.78357C18.0993 8.51992 18.52 8.09922 18.7837 7.58178C18.9555 7.24451 19.0226 6.88786 19.0537 6.50797C19.0834 6.14374 19.0834 5.69789 19.0834 5.16373V5.1333V4.86663V4.83621C19.0834 4.30205 19.0834 3.8562 19.0537 3.49196C19.0226 3.11208 18.9555 2.75542 18.7837 2.41816C18.52 1.90071 18.0993 1.48002 17.5819 1.21637C17.2446 1.04452 16.888 0.977411 16.5081 0.946374C16.1439 0.916615 15.698 0.916623 15.1639 0.916634L15.1334 0.916634H14.8667ZM4.83631 10.9166H4.86675H5.13342H5.16385C5.69801 10.9166 6.14385 10.9166 6.50809 10.9464C6.88797 10.9774 7.24463 11.0445 7.58189 11.2164C8.09934 11.48 8.52003 11.9007 8.78368 12.4182C8.95553 12.7554 9.02264 13.1121 9.05368 13.492C9.08344 13.8562 9.08343 14.302 9.08342 14.8362V14.8666V15.1333V15.1637C9.08343 15.6979 9.08344 16.1437 9.05368 16.508C9.02264 16.8879 8.95553 17.2445 8.78368 17.5818C8.52003 18.0992 8.09934 18.5199 7.58189 18.7836C7.24463 18.9554 6.88797 19.0225 6.50809 19.0536C6.14385 19.0833 5.698 19.0833 5.16384 19.0833H5.13342H4.86675H4.83632C4.30216 19.0833 3.85631 19.0833 3.49208 19.0536C3.11219 19.0225 2.75554 18.9554 2.41827 18.7836C1.90083 18.5199 1.48013 18.0992 1.21648 17.5818C1.04464 17.2445 0.977526 16.8879 0.946488 16.508C0.916729 16.1437 0.916738 15.6979 0.916748 15.1637L0.916749 15.1333V14.8666L0.916748 14.8362C0.916738 14.302 0.916729 13.8562 0.946488 13.492C0.977526 13.1121 1.04464 12.7554 1.21648 12.4182C1.48013 11.9007 1.90083 11.48 2.41827 11.2164C2.75554 11.0445 3.11219 10.9774 3.49208 10.9464C3.85631 10.9166 4.30216 10.9166 4.83631 10.9166ZM14.8667 10.9166H14.8363C14.3022 10.9166 13.8563 10.9166 13.4921 10.9464C13.1122 10.9774 12.7555 11.0445 12.4183 11.2164C11.9008 11.48 11.4801 11.9007 11.2165 12.4182C11.0446 12.7554 10.9775 13.1121 10.9465 13.492C10.9167 13.8562 10.9167 14.302 10.9167 14.8362V14.8666V15.1333V15.1637C10.9167 15.6979 10.9167 16.1437 10.9465 16.508C10.9775 16.8879 11.0446 17.2445 11.2165 17.5818C11.4801 18.0992 11.9008 18.5199 12.4183 18.7836C12.7555 18.9554 13.1122 19.0225 13.4921 19.0536C13.8563 19.0833 14.3022 19.0833 14.8363 19.0833H14.8667H15.1334H15.1638C15.698 19.0833 16.1438 19.0833 16.5081 19.0536C16.888 19.0225 17.2446 18.9554 17.5819 18.7836C18.0993 18.5199 18.52 18.0992 18.7837 17.5818C18.9555 17.2445 19.0226 16.8879 19.0537 16.508C19.0834 16.1437 19.0834 15.6979 19.0834 15.1637V15.1333V14.8666V14.8362C19.0834 14.302 19.0834 13.8562 19.0537 13.492C19.0226 13.1121 18.9555 12.7554 18.7837 12.4182C18.52 11.9007 18.0993 11.48 17.5819 11.2164C17.2446 11.0445 16.888 10.9774 16.5081 10.9464C16.1439 10.9166 15.698 10.9166 15.1639 10.9166H15.1334H14.8667Z" fill="#272932"/>
</svg>
