<svg width="20" height="20" viewBox="0 0 20 20" fill="none" xmlns="http://www.w3.org/2000/svg">
<path fill-rule="evenodd" clip-rule="evenodd" d="M9.65927 1.05818C8.83374 0.603883 7.83309 0.603883 7.00757 1.05818C6.7574 1.19585 6.52322 1.39679 6.22146 1.65571L6.1662 1.70311C5.87785 1.95027 5.79766 2.01585 5.72269 2.06132C5.43383 2.23652 5.08634 2.28733 4.7594 2.20218C4.67455 2.18008 4.57894 2.14021 4.23189 1.98596L1.97135 0.981276C1.73935 0.878165 1.47094 0.899423 1.25806 1.03777C1.04519 1.17611 0.916748 1.41275 0.916748 1.66663V11.9333L0.916748 11.9663C0.916742 13.0584 0.916738 13.9239 0.973736 14.6216C1.03202 15.335 1.15363 15.9386 1.43447 16.4898C1.88987 17.3835 2.61652 18.1102 3.51029 18.5656C4.06147 18.8464 4.66509 18.968 5.37848 19.0263C6.0761 19.0833 6.94159 19.0833 8.03373 19.0833H8.06675H16.6667C18.0014 19.0833 19.0834 18.0013 19.0834 16.6666V13.2V13.1695C19.0834 12.6354 19.0834 12.1895 19.0537 11.8253C19.0226 11.4454 18.9555 11.0888 18.7837 10.7515C18.52 10.234 18.0993 9.81335 17.5819 9.5497C17.2446 9.37786 16.888 9.31075 16.5081 9.27971C16.2862 9.26158 16.034 9.2545 15.7501 9.25173V1.66663C15.7501 1.41275 15.6216 1.17611 15.4088 1.03777C15.1959 0.899423 14.9275 0.878165 14.6955 0.981276L12.4349 1.98596C12.0879 2.14021 11.9923 2.18008 11.9074 2.20218C11.5805 2.28733 11.233 2.23652 10.9441 2.06132C10.8692 2.01585 10.789 1.95027 10.5006 1.70311L10.4454 1.65571C10.1436 1.39679 9.90943 1.19585 9.65927 1.05818ZM17.5834 16.6666C17.5834 17.1729 17.173 17.5833 16.6667 17.5833C16.1605 17.5833 15.7501 17.1729 15.7501 16.6666V10.7519C16.0064 10.7544 16.2115 10.7605 16.3859 10.7747C16.6731 10.7982 16.8103 10.8401 16.9009 10.8862C17.1361 11.0061 17.3273 11.1973 17.4472 11.4325C17.4933 11.523 17.5352 11.6603 17.5587 11.9474C17.5828 12.2433 17.5834 12.6275 17.5834 13.2V16.6666ZM5.83342 6.74997C5.4192 6.74997 5.08342 7.08575 5.08342 7.49997C5.08342 7.91418 5.4192 8.24997 5.83342 8.24997H9.16675C9.58096 8.24997 9.91675 7.91418 9.91675 7.49997C9.91675 7.08575 9.58096 6.74997 9.16675 6.74997H5.83342ZM7.58341 10.8333C7.58341 10.4191 7.9192 10.0833 8.33341 10.0833H10.8334C11.2476 10.0833 11.5834 10.4191 11.5834 10.8333C11.5834 11.2475 11.2476 11.5833 10.8334 11.5833H8.33341C7.9192 11.5833 7.58341 11.2475 7.58341 10.8333ZM8.33341 13.4166C7.9192 13.4166 7.58341 13.7524 7.58341 14.1666C7.58341 14.5808 7.9192 14.9166 8.33341 14.9166H10.8334C11.2476 14.9166 11.5834 14.5809 11.5834 14.1666C11.5834 13.7524 11.2476 13.4166 10.8334 13.4166H8.33341ZM6.66675 10.8333C6.66675 11.2935 6.29365 11.6666 5.83342 11.6666C5.37318 11.6666 5.00008 11.2935 5.00008 10.8333C5.00008 10.3731 5.37318 9.99997 5.83342 9.99997C6.29365 9.99997 6.66675 10.3731 6.66675 10.8333ZM5.83342 15C6.29365 15 6.66675 14.6269 6.66675 14.1666C6.66675 13.7064 6.29365 13.3333 5.83342 13.3333C5.37318 13.3333 5.00008 13.7064 5.00008 14.1666C5.00008 14.6269 5.37318 15 5.83342 15Z" fill="#272932"/>
</svg>
