<svg width="21" height="20" viewBox="0 0 21 20" fill="none" xmlns="http://www.w3.org/2000/svg">
<path d="M14.9448 15.7643H20.9756V19.9911L9.91911 20L14.9448 15.7643ZM0 10.0222C0 8.67523 0.255693 7.3992 0.767078 6.19406C1.27846 4.98892 1.98382 3.92556 2.88315 3.00399C3.80012 2.06469 4.85816 1.3292 6.05727 0.797518C7.25638 0.265839 8.54366 0 9.91911 0C11.2769 0 12.5554 0.265839 13.7545 0.797518C14.9536 1.3292 16.0116 2.06469 16.9286 3.00399C17.8632 3.92556 18.5862 4.98892 19.0976 6.19406C19.6266 7.3992 19.8911 8.67523 19.8911 10.0222C19.8911 11.4045 19.6266 12.6983 19.0976 13.9034C18.5862 15.1086 17.8632 16.1719 16.9286 17.0935C16.0116 17.9973 14.9536 18.7062 13.7545 19.2202C12.5554 19.7342 11.2769 19.9911 9.91911 19.9911C8.54366 19.9911 7.25638 19.7342 6.05727 19.2202C4.85816 18.7062 3.80012 17.9973 2.88315 17.0935C1.98382 16.1719 1.27846 15.1086 0.767078 13.9034C0.255693 12.6983 0 11.4045 0 10.0222ZM3.96764 10.0222C3.96764 10.8728 4.11753 11.6792 4.41731 12.4413C4.73472 13.1856 5.16675 13.8502 5.71341 14.4351C6.27769 15.0022 6.92133 15.4453 7.64433 15.7643C8.38495 16.0833 9.1873 16.2428 10.0514 16.2428C10.8802 16.2428 11.6472 16.0833 12.3526 15.7643C13.0756 15.4453 13.7016 15.0022 14.2306 14.4351C14.7596 13.868 15.174 13.2122 15.4738 12.4679C15.7736 11.7058 15.9235 10.8906 15.9235 10.0222C15.9235 9.17147 15.7648 8.37395 15.4474 7.6296C15.1476 6.86752 14.7244 6.20292 14.1777 5.6358C13.6487 5.06868 13.0227 4.62561 12.2997 4.3066C11.5767 3.98759 10.792 3.82809 9.94556 3.82809C9.09913 3.82809 8.31442 3.98759 7.59143 4.3066C6.86843 4.62561 6.23361 5.06868 5.68696 5.6358C5.1403 6.20292 4.71709 6.86752 4.41731 7.6296C4.11753 8.37395 3.96764 9.17147 3.96764 10.0222Z" fill="#6280E8"/>
<path d="M13.5682 10.031C13.5682 11.9886 11.9892 13.5755 10.0414 13.5755C8.09358 13.5755 6.51458 11.9886 6.51458 10.031C6.51458 8.07343 8.09358 6.48649 10.0414 6.48649C11.9892 6.48649 13.5682 8.07343 13.5682 10.031Z" fill="#6280E8"/>
</svg>
